<svg xmlns="http://www.w3.org/2000/svg" viewBox="0 0 16 16" fill="currentColor"><path d="M1 9.5a2.5 2.5 0 1 0 5 0c0-1.4-.5-2.2-1.8-3.5l-.8-.8A3.8 3.8 0 0 1 2 2.2 4 4 0 0 1 6 6.2h-1.6a2.3 2.3 0 0 0-.7-1.7l.7.7c1.6 1.5 2.2 2.8 2.2 4.3A4.1 4.1 0 0 1 2.5 13 4.1 4.1 0 0 1 0 9.5h1Zm7.2.3c0 1.6 1.1 2.7 2.7 2.7 1.5 0 2.5-.8 2.5-2 0-1-.6-1.6-2-1.9l-1-.2C8.4 8 7.6 7 7.6 5.8 7.6 4 9.1 2.7 11 2.7c2.2 0 3.7 1.5 3.8 3.6h-1.6c-.1-1.2-.9-2-2.2-2-1.1 0-1.9.7-1.9 1.6 0 .8.5 1.2 1.6 1.5l1 .2c2.1.4 3.2 1.4 3.2 3 0 2.1-1.7 3.5-4.1 3.5-2.5 0-4.2-1.7-4.2-4.3h1.6Z"/></svg>
